<svg width="20" height="20" viewBox="0 0 20 20" fill="none" xmlns="http://www.w3.org/2000/svg">
<g clip-path="url(#clip0_1434_72)">
<path d="M10 0.476196C4.74001 0.476196 0.476196 4.74001 0.476196 10C0.476196 15.26 4.74001 19.5238 10 19.5238C15.26 19.5238 19.5238 15.26 19.5238 10C19.5238 4.74001 15.26 0.476196 10 0.476196ZM10 1.8562C12.0748 1.8562 13.9686 2.63239 15.4067 3.90953C14.35 5.30334 12.7448 6.23143 11.1362 6.85953C10.2256 5.20112 9.20507 3.6055 8.08143 2.08334C8.70986 1.93186 9.35406 1.85561 10.0005 1.8562H10ZM6.53524 2.62762C7.59715 4.2162 8.62572 5.68905 9.56524 7.3562C7.18905 7.97191 4.50382 8.34143 2.02334 8.34763C2.5462 5.81048 4.25048 3.70382 6.53524 2.6281V2.62762ZM16.31 4.85143C17.4868 6.28951 18.1342 8.08803 18.1438 9.9462C16.26 9.57477 14.3867 9.47762 12.4791 9.67001C12.2648 9.13524 12.0048 8.62715 11.7557 8.07953C13.4 7.4162 15.1581 6.28096 16.31 4.85096V4.85143ZM10.2267 8.6162C10.4305 9.04953 10.6667 9.50953 10.8886 9.97953C8.2362 11.1491 5.41477 12.7119 3.95048 15.4519C2.54477 13.8963 1.79563 11.8571 1.86001 9.76143C4.70048 9.7481 7.48858 9.39286 10.2267 8.6162ZM14.5305 10.8367C15.7156 10.8369 16.8959 10.989 18.0424 11.2891C17.8656 12.392 17.4638 13.4468 16.8619 14.3879C16.26 15.3289 15.471 16.136 14.5438 16.7591C14.1067 14.771 13.69 12.8686 12.9533 10.9505C13.4754 10.8744 14.0024 10.8362 14.53 10.8362L14.5305 10.8367ZM18.0848 10.9843C18.0791 11.031 18.0738 11.0767 18.0672 11.1224C18.0738 11.0762 18.0795 11.0305 18.0848 10.9843ZM11.4467 11.3224C12.1971 13.2619 12.7862 15.4095 13.1814 17.4995C12.1753 17.9264 11.0934 18.1457 10.0005 18.1443C8.18993 18.1469 6.43061 17.5434 5.00286 16.43C6.47762 14.0376 8.76191 12.2271 11.4462 11.3229L11.4467 11.3224Z" fill="white"/>
</g>
<defs>
<clipPath id="clip0_1434_72">
<rect width="20" height="20" rx="10" fill="white"/>
</clipPath>
</defs>
</svg>
