<svg width="20" height="20" viewBox="0 0 20 20" fill="none" xmlns="http://www.w3.org/2000/svg">
<path d="M7.69746 7.37917V17.495H10.8383V12.4925C10.8383 11.1725 11.0866 9.89417 12.7233 9.89417C14.3375 9.89417 14.3575 11.4033 14.3575 12.5758V17.4958H17.5V11.9483C17.5 9.22333 16.9133 7.12917 13.7283 7.12917C12.1991 7.12917 11.1741 7.96833 10.755 8.7625H10.7125V7.37917H7.69746ZM2.57913 7.37917H5.72496V17.495H2.57913V7.37917Z" fill="white"/>
<path d="M5.76758 4C5.76758 5.10457 4.87215 6 3.76758 6C2.66301 6 1.76758 5.10457 1.76758 4C1.76758 2.89543 2.66301 2 3.76758 2C4.87215 2 5.76758 2.89543 5.76758 4Z" fill="white"/>
</svg>
