<svg width="20" height="21" viewBox="0 0 20 21" fill="none" xmlns="http://www.w3.org/2000/svg">
<path d="M7.69746 7.87917V17.995H10.8383V12.9925C10.8383 11.6725 11.0866 10.3942 12.7233 10.3942C14.3375 10.3942 14.3575 11.9033 14.3575 13.0758V17.9958H17.5V12.4483C17.5 9.72333 16.9133 7.62917 13.7283 7.62917C12.1991 7.62917 11.1741 8.46833 10.755 9.2625H10.7125V7.87917H7.69746ZM2.57913 7.87917H5.72496V17.995H2.57913V7.87917Z" fill="#0A0A0A"/>
<path d="M5.76758 4.5C5.76758 5.60457 4.87215 6.5 3.76758 6.5C2.66301 6.5 1.76758 5.60457 1.76758 4.5C1.76758 3.39543 2.66301 2.5 3.76758 2.5C4.87215 2.5 5.76758 3.39543 5.76758 4.5Z" fill="#0A0A0A"/>
</svg>
